# xmcd
#
# Track frame offsets:
#	150
#	19357
#	37297
#	54627
#	75737
#
# Disc length: 1246 seconds
#
# Revision: 1
# Processed by: cddbd v1.5.1PL0 Copyright (c) Steve Scherf et al.
# Submitted via: EasyCDDAExtractor 7.0.6.1
#
DISCID=4004dc05
DTITLE=Mario Winans - Don't know W - Remixes
DYEAR=1997
DGENRE=Rap
TTITLE0=Trackmaster remix
TTITLE1=LP version
TTITLE2=R and B Mix
TTITLE3=Talk mix
TTITLE4=LP Instrumental
EXTD=
EXTT0=
EXTT1=
EXTT2=
EXTT3=
EXTT4=
PLAYORDER=
